<?xml version="1.0" standalone="no"?>
<!DOCTYPE svg PUBLIC "-//W3C//DTD SVG 20010904//EN"
 "http://www.w3.org/TR/2001/REC-SVG-20010904/DTD/svg10.dtd">
<svg version="1.0" xmlns="http://www.w3.org/2000/svg"
 width="16.000000pt" height="16.000000pt" viewBox="0 0 16.000000 16.000000"
 preserveAspectRatio="xMidYMid meet">

<g transform="translate(0.000000,16.000000) scale(0.100000,-0.100000)"
fill="#000000" stroke="none">
<path d="M29 139 c-18 -18 -20 -28 -14 -66 4 -26 2 -49 -4 -56 -7 -10 -3 -13
15 -15 15 -1 23 2 19 8 -6 10 0 12 35 12 35 0 41 -2 35 -12 -4 -6 4 -9 19 -8
18 2 22 5 15 15 -6 7 -8 30 -4 56 6 38 4 48 -14 66 -27 27 -75 27 -102 0z m97
-11 c19 -23 19 -23 -2 -5 -11 9 -34 17 -50 17 -20 0 -25 -3 -15 -9 10 -7 8
-12 -10 -24 -28 -20 -42 -11 -15 9 11 8 16 14 12 14 -4 0 -4 5 -1 10 11 18 61
11 81 -12z m2 -43 c-7 -8 -38 23 -38 38 0 6 10 2 22 -10 12 -13 19 -25 16 -28z
m-19 -20 c10 4 8 -2 -6 -17 l-23 -22 -22 22 c-18 18 -19 22 -5 16 13 -5 17 -1
18 17 l0 24 11 -23 c8 -15 17 -21 27 -17z"/>
</g>
</svg>
